<?xml version="1.0" encoding="UTF-8"?>
<svg xmlns="http://www.w3.org/2000/svg" xmlns:xlink="http://www.w3.org/1999/xlink" width="100px" height="100px" viewBox="0 0 100 100" version="1.1">
<g id="surface1">
<path style=" stroke:none;fill-rule:nonzero;fill:rgb(84, 91, 119);fill-opacity:1;" d="M 59.605469 87.898438 C 65.355469 86.621094 69.683594 84.515625 72.59375 81.589844 C 75.5 78.660156 76.953125 74.792969 76.953125 69.984375 L 76.953125 62.347656 C 76.953125 56.132812 80.398438 53.023438 87.285156 53.023438 L 87.285156 47.460938 C 80.398438 47.460938 76.953125 44.367188 76.953125 38.179688 L 76.953125 30.195312 C 76.890625 25.515625 75.433594 21.738281 72.59375 18.859375 C 69.75 15.984375 65.421875 13.890625 59.605469 12.585938 L 57.75 17 C 64.542969 18.710938 67.9375 23.175781 67.9375 30.390625 L 67.9375 38.140625 C 67.9375 43.945312 70.648438 47.984375 76.078125 50.261719 C 70.648438 52.566406 67.9375 56.644531 67.9375 62.5 L 67.9375 70.40625 C 67.839844 77.4375 64.445312 81.800781 57.75 83.488281 Z M 40.167969 87.859375 C 34.417969 86.582031 30.09375 84.480469 27.1875 81.554688 C 24.28125 78.625 22.828125 74.757812 22.828125 69.953125 L 22.828125 62.320312 C 22.828125 56.109375 19.382812 53.003906 12.5 53.003906 L 12.5 47.445312 C 19.382812 47.445312 22.828125 44.351562 22.828125 38.164062 L 22.828125 30.1875 C 22.890625 25.507812 24.34375 21.734375 27.1875 18.855469 C 30.027344 15.980469 34.351562 13.890625 40.167969 12.585938 L 42.015625 16.996094 C 35.230469 18.710938 31.835938 23.171875 31.835938 30.378906 L 31.835938 38.125 C 31.835938 43.929688 29.125 47.96875 23.703125 50.242188 C 29.125 52.542969 31.835938 56.621094 31.835938 62.476562 L 31.835938 70.375 C 31.933594 77.40625 35.328125 81.765625 42.015625 83.453125 Z M 40.167969 87.859375 "/>
</g>
</svg>
