<?xml version="1.0" encoding="UTF-8"?>
<svg xmlns="http://www.w3.org/2000/svg" xmlns:xlink="http://www.w3.org/1999/xlink" width="100px" height="100px" viewBox="0 0 100 100" version="1.1">
<g id="surface1">
<path style=" stroke:none;fill-rule:nonzero;fill:rgb(84, 91, 119);fill-opacity:1;" d="M 50 62.207031 C 47.585938 62.207031 45.226562 61.492188 43.21875 60.152344 C 41.210938 58.808594 39.644531 56.902344 38.722656 54.671875 C 37.796875 52.441406 37.554688 49.988281 38.027344 47.617188 C 38.496094 45.25 39.660156 43.074219 41.367188 41.367188 C 43.074219 39.660156 45.25 38.496094 47.617188 38.027344 C 49.988281 37.554688 52.441406 37.796875 54.671875 38.722656 C 56.902344 39.644531 58.808594 41.210938 60.152344 43.21875 C 61.492188 45.226562 62.207031 47.585938 62.207031 50 C 62.207031 53.238281 60.921875 56.34375 58.632812 58.632812 C 56.34375 60.921875 53.238281 62.207031 50 62.207031 Z M 50 44.042969 C 48.820312 44.042969 47.667969 44.390625 46.691406 45.046875 C 45.710938 45.699219 44.945312 46.632812 44.496094 47.71875 C 44.042969 48.808594 43.925781 50.007812 44.15625 51.164062 C 44.386719 52.316406 44.953125 53.378906 45.785156 54.214844 C 46.621094 55.046875 47.683594 55.613281 48.835938 55.84375 C 49.992188 56.074219 51.191406 55.957031 52.28125 55.503906 C 53.367188 55.054688 54.300781 54.289062 54.953125 53.308594 C 55.609375 52.332031 55.957031 51.179688 55.957031 50 C 55.957031 48.417969 55.332031 46.902344 54.214844 45.785156 C 53.097656 44.667969 51.582031 44.042969 50 44.042969 Z M 50 44.042969 "/>
<path style=" stroke:none;fill-rule:nonzero;fill:rgb(84, 91, 119);fill-opacity:1;" d="M 50.25 86.457031 C 49.03125 86.453125 47.828125 86.207031 46.703125 85.734375 C 45.582031 85.261719 44.5625 84.570312 43.707031 83.703125 C 42.851562 82.835938 42.175781 81.808594 41.71875 80.679688 C 41.261719 79.550781 41.03125 78.34375 41.042969 77.125 C 41.023438 76.75 40.902344 76.386719 40.6875 76.078125 C 40.476562 75.765625 40.179688 75.523438 39.832031 75.375 C 39.449219 75.199219 39.023438 75.140625 38.609375 75.207031 C 38.195312 75.273438 37.808594 75.464844 37.5 75.75 C 35.769531 77.464844 33.4375 78.4375 31 78.457031 C 28.546875 78.472656 26.1875 77.53125 24.417969 75.832031 C 23.558594 74.972656 22.875 73.953125 22.410156 72.832031 C 21.945312 71.710938 21.707031 70.507812 21.707031 69.292969 C 21.707031 68.078125 21.945312 66.875 22.410156 65.75 C 22.875 64.628906 23.558594 63.609375 24.417969 62.75 C 24.710938 62.480469 24.921875 62.136719 25.023438 61.753906 C 25.128906 61.367188 25.121094 60.960938 25 60.582031 C 24.796875 60.230469 24.503906 59.9375 24.15625 59.734375 C 23.804688 59.53125 23.40625 59.421875 23 59.417969 C 20.546875 59.40625 18.195312 58.445312 16.441406 56.734375 C 14.683594 55.027344 13.660156 52.699219 13.582031 50.25 C 13.589844 49.035156 13.832031 47.832031 14.304688 46.714844 C 14.773438 45.59375 15.460938 44.578125 16.320312 43.722656 C 17.183594 42.867188 18.207031 42.191406 19.332031 41.730469 C 20.457031 41.269531 21.660156 41.035156 22.875 41.042969 C 23.25 41.023438 23.613281 40.902344 23.925781 40.6875 C 24.234375 40.476562 24.476562 40.179688 24.625 39.832031 C 24.800781 39.449219 24.859375 39.023438 24.792969 38.609375 C 24.726562 38.195312 24.535156 37.808594 24.25 37.5 C 22.535156 35.769531 21.5625 33.4375 21.542969 31 C 21.519531 29.785156 21.742188 28.574219 22.191406 27.445312 C 22.644531 26.3125 23.3125 25.285156 24.167969 24.417969 C 25.027344 23.558594 26.046875 22.875 27.167969 22.410156 C 28.289062 21.945312 29.492188 21.707031 30.707031 21.707031 C 31.921875 21.707031 33.125 21.945312 34.25 22.410156 C 35.371094 22.875 36.390625 23.558594 37.25 24.417969 C 37.550781 24.703125 37.917969 24.90625 38.320312 25.007812 C 38.722656 25.109375 39.140625 25.105469 39.542969 25 C 39.90625 24.800781 40.214844 24.511719 40.441406 24.164062 C 40.667969 23.8125 40.800781 23.414062 40.832031 23 C 40.832031 20.542969 41.789062 18.179688 43.5 16.414062 C 45.210938 14.648438 47.542969 13.617188 50 13.542969 C 51.214844 13.550781 52.414062 13.800781 53.535156 14.277344 C 54.652344 14.753906 55.664062 15.441406 56.515625 16.308594 C 57.367188 17.175781 58.039062 18.203125 58.496094 19.328125 C 58.949219 20.457031 59.175781 21.660156 59.167969 22.875 C 59.183594 23.257812 59.296875 23.625 59.503906 23.949219 C 59.707031 24.269531 59.996094 24.53125 60.332031 24.707031 C 60.703125 24.84375 61.097656 24.871094 61.484375 24.789062 C 61.867188 24.710938 62.21875 24.523438 62.5 24.25 C 64.230469 22.53125 66.5625 21.5625 69 21.542969 C 70.21875 21.503906 71.433594 21.71875 72.566406 22.167969 C 73.699219 22.621094 74.726562 23.300781 75.582031 24.167969 C 76.441406 25.027344 77.125 26.046875 77.589844 27.167969 C 78.054688 28.289062 78.292969 29.492188 78.292969 30.707031 C 78.292969 31.921875 78.054688 33.125 77.589844 34.25 C 77.125 35.371094 76.441406 36.390625 75.582031 37.25 C 75.320312 37.5625 75.140625 37.9375 75.058594 38.335938 C 74.980469 38.738281 75 39.152344 75.125 39.542969 C 75.324219 39.90625 75.613281 40.214844 75.960938 40.441406 C 76.308594 40.667969 76.710938 40.800781 77.125 40.832031 C 79.5625 40.863281 81.894531 41.835938 83.632812 43.542969 C 85.371094 45.25 86.382812 47.5625 86.457031 50 C 86.449219 51.214844 86.199219 52.414062 85.722656 53.535156 C 85.246094 54.652344 84.558594 55.664062 83.691406 56.515625 C 82.824219 57.367188 81.796875 58.039062 80.671875 58.496094 C 79.542969 58.949219 78.339844 59.175781 77.125 59.167969 C 76.742188 59.183594 76.375 59.296875 76.050781 59.503906 C 75.730469 59.707031 75.46875 59.996094 75.292969 60.332031 C 75.15625 60.703125 75.128906 61.097656 75.210938 61.484375 C 75.289062 61.867188 75.476562 62.21875 75.75 62.5 C 77.46875 64.230469 78.4375 66.5625 78.457031 69 C 78.480469 70.214844 78.257812 71.425781 77.808594 72.554688 C 77.355469 73.6875 76.6875 74.714844 75.832031 75.582031 C 74.972656 76.441406 73.953125 77.125 72.832031 77.589844 C 71.710938 78.054688 70.507812 78.292969 69.292969 78.292969 C 68.078125 78.292969 66.875 78.054688 65.75 77.589844 C 64.628906 77.125 63.609375 76.441406 62.75 75.582031 C 62.46875 75.3125 62.117188 75.125 61.734375 75.042969 C 61.347656 74.960938 60.953125 74.988281 60.582031 75.125 C 60.230469 75.328125 59.9375 75.621094 59.734375 75.96875 C 59.53125 76.320312 59.421875 76.71875 59.417969 77.125 C 59.386719 79.5625 58.414062 81.894531 56.707031 83.632812 C 55 85.371094 52.6875 86.382812 50.25 86.457031 Z M 38.957031 68.917969 C 40.0625 68.902344 41.160156 69.132812 42.167969 69.582031 C 43.65625 70.203125 44.929688 71.242188 45.839844 72.574219 C 46.75 73.90625 47.253906 75.472656 47.292969 77.082031 C 47.28125 77.886719 47.582031 78.664062 48.136719 79.246094 C 48.6875 79.832031 49.445312 80.175781 50.25 80.207031 C 51.054688 80.144531 51.800781 79.777344 52.34375 79.183594 C 52.886719 78.585938 53.179688 77.804688 53.167969 77 C 53.175781 75.382812 53.644531 73.800781 54.511719 72.4375 C 55.382812 71.074219 56.621094 69.984375 58.082031 69.292969 C 59.605469 68.660156 61.28125 68.492188 62.898438 68.808594 C 64.511719 69.128906 66 69.921875 67.167969 71.082031 C 67.71875 71.636719 68.46875 71.945312 69.25 71.945312 C 70.03125 71.945312 70.78125 71.636719 71.332031 71.082031 C 71.886719 70.53125 72.195312 69.78125 72.195312 69 C 72.195312 68.21875 71.886719 67.46875 71.332031 66.917969 C 70.175781 65.746094 69.394531 64.257812 69.082031 62.640625 C 68.769531 61.023438 68.945312 59.351562 69.582031 57.832031 C 70.242188 56.371094 71.304688 55.128906 72.652344 54.257812 C 73.996094 53.386719 75.5625 52.921875 77.167969 52.917969 C 77.960938 52.929688 78.726562 52.628906 79.300781 52.085938 C 79.878906 51.539062 80.21875 50.792969 80.25 50 C 80.195312 49.191406 79.832031 48.4375 79.234375 47.894531 C 78.636719 47.351562 77.851562 47.058594 77.042969 47.082031 C 75.410156 47.039062 73.824219 46.539062 72.460938 45.640625 C 71.101562 44.742188 70.015625 43.480469 69.332031 42 C 68.710938 40.464844 68.546875 38.777344 68.867188 37.148438 C 69.183594 35.523438 69.96875 34.023438 71.125 32.832031 C 71.398438 32.558594 71.617188 32.234375 71.765625 31.878906 C 71.910156 31.519531 71.988281 31.136719 71.988281 30.75 C 71.988281 30.363281 71.910156 29.980469 71.765625 29.621094 C 71.617188 29.265625 71.398438 28.941406 71.125 28.667969 C 70.851562 28.394531 70.527344 28.175781 70.167969 28.027344 C 69.8125 27.878906 69.429688 27.804688 69.042969 27.804688 C 68.65625 27.804688 68.273438 27.878906 67.914062 28.027344 C 67.558594 28.175781 67.230469 28.394531 66.957031 28.667969 C 65.785156 29.753906 64.328125 30.484375 62.753906 30.765625 C 61.179688 31.046875 59.558594 30.867188 58.082031 30.253906 C 56.605469 29.636719 55.339844 28.613281 54.429688 27.296875 C 53.523438 25.980469 53.011719 24.429688 52.957031 22.832031 C 52.96875 22.039062 52.671875 21.273438 52.125 20.699219 C 51.582031 20.121094 50.832031 19.78125 50.042969 19.75 C 49.234375 19.804688 48.480469 20.167969 47.9375 20.765625 C 47.390625 21.363281 47.101562 22.148438 47.125 22.957031 C 47.082031 24.589844 46.582031 26.175781 45.683594 27.539062 C 44.785156 28.898438 43.523438 29.984375 42.042969 30.667969 C 40.503906 31.289062 38.820312 31.453125 37.191406 31.132812 C 35.5625 30.816406 34.0625 30.03125 32.875 28.875 C 32.601562 28.601562 32.277344 28.382812 31.917969 28.238281 C 31.5625 28.089844 31.179688 28.011719 30.792969 28.011719 C 30.40625 28.011719 30.023438 28.089844 29.664062 28.238281 C 29.308594 28.382812 28.980469 28.601562 28.707031 28.875 C 28.433594 29.148438 28.21875 29.472656 28.070312 29.832031 C 27.921875 30.1875 27.84375 30.570312 27.84375 30.957031 C 27.84375 31.34375 27.921875 31.726562 28.070312 32.085938 C 28.21875 32.441406 28.433594 32.769531 28.707031 33.042969 C 29.859375 34.21875 30.632812 35.707031 30.9375 37.324219 C 31.242188 38.941406 31.058594 40.613281 30.417969 42.125 C 29.796875 43.613281 28.757812 44.890625 27.425781 45.800781 C 26.09375 46.707031 24.527344 47.214844 22.917969 47.25 C 22.113281 47.238281 21.335938 47.542969 20.753906 48.09375 C 20.167969 48.648438 19.824219 49.40625 19.792969 50.207031 C 19.855469 51.011719 20.222656 51.761719 20.820312 52.300781 C 21.414062 52.84375 22.195312 53.136719 23 53.125 C 24.617188 53.136719 26.199219 53.601562 27.5625 54.472656 C 28.925781 55.339844 30.015625 56.578125 30.707031 58.042969 C 31.339844 59.5625 31.507812 61.238281 31.191406 62.855469 C 30.871094 64.472656 30.078125 65.957031 28.917969 67.125 C 28.644531 67.398438 28.425781 67.722656 28.277344 68.082031 C 28.128906 68.4375 28.054688 68.820312 28.054688 69.207031 C 28.054688 69.59375 28.128906 69.976562 28.277344 70.335938 C 28.425781 70.691406 28.644531 71.019531 28.917969 71.292969 C 29.191406 71.566406 29.515625 71.78125 29.871094 71.929688 C 30.230469 72.078125 30.613281 72.15625 31 72.15625 C 31.386719 72.15625 31.769531 72.078125 32.128906 71.929688 C 32.484375 71.78125 32.808594 71.566406 33.082031 71.292969 C 34.667969 69.78125 36.769531 68.929688 38.957031 68.917969 Z M 38.957031 68.917969 "/>
</g>
</svg>
