<?xml version="1.0" encoding="UTF-8"?>
<svg xmlns="http://www.w3.org/2000/svg" xmlns:xlink="http://www.w3.org/1999/xlink" width="100px" height="100px" viewBox="0 0 100 100" version="1.1">
<g id="surface1">
<path style=" stroke:none;fill-rule:evenodd;fill:rgb(84, 91, 119);fill-opacity:1;" d="M 8.332031 25 C 8.332031 18.097656 13.929688 12.5 20.832031 12.5 L 79.167969 12.5 C 86.070312 12.5 91.667969 18.097656 91.667969 25 L 91.667969 62.5 C 91.667969 69.402344 86.070312 75 79.167969 75 L 54.167969 75 L 54.167969 79.167969 L 62.5 79.167969 C 64.800781 79.167969 66.667969 81.03125 66.667969 83.332031 C 66.667969 85.632812 64.800781 87.5 62.5 87.5 L 37.5 87.5 C 35.199219 87.5 33.332031 85.632812 33.332031 83.332031 C 33.332031 81.03125 35.199219 79.167969 37.5 79.167969 L 45.832031 79.167969 L 45.832031 75 L 20.832031 75 C 13.929688 75 8.332031 69.402344 8.332031 62.5 Z M 20.832031 20.832031 C 18.53125 20.832031 16.667969 22.699219 16.667969 25 L 16.667969 62.5 C 16.667969 64.800781 18.53125 66.667969 20.832031 66.667969 L 79.167969 66.667969 C 81.46875 66.667969 83.332031 64.800781 83.332031 62.5 L 83.332031 25 C 83.332031 22.699219 81.46875 20.832031 79.167969 20.832031 Z M 20.832031 20.832031 "/>
</g>
</svg>
