<?xml version="1.0" encoding="UTF-8"?>
<svg xmlns="http://www.w3.org/2000/svg" xmlns:xlink="http://www.w3.org/1999/xlink" width="100px" height="100px" viewBox="0 0 100 100" version="1.1">
<g id="surface1">
<path style=" stroke:none;fill-rule:nonzero;fill:rgb(84, 91, 119);fill-opacity:1;" d="M 31.25 25 C 27.796875 25 25 27.796875 25 31.25 L 25 68.75 C 25 72.203125 27.796875 75 31.25 75 L 68.75 75 C 72.203125 75 75 72.203125 75 68.75 L 75 31.25 C 75 27.796875 72.203125 25 68.75 25 Z M 31.25 18.75 L 68.75 18.75 C 75.652344 18.75 81.25 24.347656 81.25 31.25 L 81.25 68.75 C 81.25 75.652344 75.652344 81.25 68.75 81.25 L 31.25 81.25 C 24.347656 81.25 18.75 75.652344 18.75 68.75 L 18.75 31.25 C 18.75 24.347656 24.347656 18.75 31.25 18.75 Z M 31.25 18.75 "/>
<path style=" stroke:none;fill-rule:nonzero;fill:rgb(84, 91, 119);fill-opacity:1;" d="M 50 6.25 C 51.726562 6.25 53.125 7.648438 53.125 9.375 L 53.125 21.875 L 46.875 21.875 L 46.875 9.375 C 46.875 7.648438 48.273438 6.25 50 6.25 Z M 65.625 6.25 C 67.351562 6.25 68.75 7.648438 68.75 9.375 L 68.75 21.875 L 62.5 21.875 L 62.5 9.375 C 62.5 7.648438 63.898438 6.25 65.625 6.25 Z M 34.375 6.25 C 36.101562 6.25 37.5 7.648438 37.5 9.375 L 37.5 21.875 L 31.25 21.875 L 31.25 9.375 C 31.25 7.648438 32.648438 6.25 34.375 6.25 Z M 50 93.75 C 48.273438 93.75 46.875 92.351562 46.875 90.625 L 46.875 78.125 L 53.125 78.125 L 53.125 90.625 C 53.125 92.351562 51.726562 93.75 50 93.75 Z M 65.625 93.75 C 63.898438 93.75 62.5 92.351562 62.5 90.625 L 62.5 78.125 L 68.75 78.125 L 68.75 90.625 C 68.75 92.351562 67.351562 93.75 65.625 93.75 Z M 34.375 93.75 C 32.648438 93.75 31.25 92.351562 31.25 90.625 L 31.25 78.125 L 37.5 78.125 L 37.5 90.625 C 37.5 92.351562 36.101562 93.75 34.375 93.75 Z M 6.25 50 C 6.25 48.273438 7.648438 46.875 9.375 46.875 L 21.875 46.875 L 21.875 53.125 L 9.375 53.125 C 7.648438 53.125 6.25 51.726562 6.25 50 Z M 6.25 34.375 C 6.25 32.648438 7.648438 31.25 9.375 31.25 L 21.875 31.25 L 21.875 37.5 L 9.375 37.5 C 7.648438 37.5 6.25 36.101562 6.25 34.375 Z M 6.25 65.625 C 6.25 63.898438 7.648438 62.5 9.375 62.5 L 21.875 62.5 L 21.875 68.75 L 9.375 68.75 C 7.648438 68.75 6.25 67.351562 6.25 65.625 Z M 93.75 50 C 93.75 51.726562 92.351562 53.125 90.625 53.125 L 78.125 53.125 L 78.125 46.875 L 90.625 46.875 C 92.351562 46.875 93.75 48.273438 93.75 50 Z M 93.75 34.375 C 93.75 36.101562 92.351562 37.5 90.625 37.5 L 78.125 37.5 L 78.125 31.25 L 90.625 31.25 C 92.351562 31.25 93.75 32.648438 93.75 34.375 Z M 93.75 65.625 C 93.75 67.351562 92.351562 68.75 90.625 68.75 L 78.125 68.75 L 78.125 62.5 L 90.625 62.5 C 92.351562 62.5 93.75 63.898438 93.75 65.625 Z M 93.75 65.625 "/>
</g>
</svg>
