<?xml version="1.0" encoding="UTF-8"?>
<svg xmlns="http://www.w3.org/2000/svg" xmlns:xlink="http://www.w3.org/1999/xlink" width="100px" height="100px" viewBox="0 0 100 100" version="1.1">
<g id="surface1">
<path style="fill:none;stroke-width:2;stroke-linecap:round;stroke-linejoin:round;stroke:rgb(84, 91, 119);stroke-opacity:1;stroke-miterlimit:4;" d="M 6 10.999688 L 10.000312 10.999688 M 7.999687 9 L 7.999687 13.000312 M 15 12 L 15.010312 12 M 18 10.000312 L 18.010312 10.000312 M 10.449375 4.999687 L 13.551562 4.999687 C 16.176562 4.999687 17.488125 4.999687 18.518438 5.4975 C 19.425937 5.935313 20.179688 6.6375 20.68125 7.510312 C 21.250312 8.503125 21.344062 9.811875 21.530625 12.430312 L 21.777188 15.874688 C 21.897187 17.563125 20.560312 19.000312 18.86625 19.000312 C 18.000937 19.000312 17.179688 18.615 16.625625 17.950312 L 16.249688 17.500312 C 15.906562 17.087812 15.735 16.8825 15.54 16.715625 C 15.130312 16.366875 14.634375 16.135312 14.104687 16.043437 C 13.851562 16.000312 13.583437 16.000312 13.047187 16.000312 L 10.952813 16.000312 C 10.416562 16.000312 10.148438 16.000312 9.895312 16.043437 C 9.365625 16.135312 8.869687 16.366875 8.46 16.715625 C 8.265 16.8825 8.093438 17.087812 7.750312 17.500312 L 7.375312 17.950312 C 6.820312 18.615 5.999062 19.000312 5.13375 19.000312 C 3.440625 19.000312 2.102812 17.563125 2.22375 15.874688 L 2.469375 12.430312 C 2.656875 9.811875 2.749687 8.503125 3.319687 7.510312 C 3.82125 6.6375 4.575 5.935313 5.481562 5.4975 C 6.511875 4.999687 7.824375 4.999687 10.449375 4.999687 Z M 10.449375 4.999687 " transform="matrix(4.166667,0,0,4.166667,0,0)"/>
</g>
</svg>
