<?xml version="1.0" encoding="UTF-8"?>
<svg xmlns="http://www.w3.org/2000/svg" xmlns:xlink="http://www.w3.org/1999/xlink" width="100px" height="100px" viewBox="0 0 100 100" version="1.1">
<g id="surface1">
<path style=" stroke:none;fill-rule:nonzero;fill:rgb(84, 91, 119);fill-opacity:1;" d="M 31.25 25 C 31.25 28.453125 28.453125 31.25 25 31.25 C 21.546875 31.25 18.75 28.453125 18.75 25 C 18.75 21.546875 21.546875 18.75 25 18.75 C 28.453125 18.75 31.25 21.546875 31.25 25 Z M 31.25 25 "/>
<path style=" stroke:none;fill-rule:evenodd;fill:rgb(84, 91, 119);fill-opacity:1;" d="M 16.667969 4.167969 C 9.761719 4.167969 4.167969 9.761719 4.167969 16.667969 L 4.167969 33.332031 C 4.167969 40.238281 9.761719 45.832031 16.667969 45.832031 L 83.332031 45.832031 C 90.238281 45.832031 95.832031 40.238281 95.832031 33.332031 L 95.832031 16.667969 C 95.832031 9.761719 90.238281 4.167969 83.332031 4.167969 Z M 12.5 16.667969 C 12.5 14.367188 14.367188 12.5 16.667969 12.5 L 83.332031 12.5 C 85.632812 12.5 87.5 14.367188 87.5 16.667969 L 87.5 33.332031 C 87.5 35.632812 85.632812 37.5 83.332031 37.5 L 16.667969 37.5 C 14.367188 37.5 12.5 35.632812 12.5 33.332031 Z M 12.5 16.667969 "/>
<path style=" stroke:none;fill-rule:nonzero;fill:rgb(84, 91, 119);fill-opacity:1;" d="M 25 81.25 C 28.453125 81.25 31.25 78.453125 31.25 75 C 31.25 71.546875 28.453125 68.75 25 68.75 C 21.546875 68.75 18.75 71.546875 18.75 75 C 18.75 78.453125 21.546875 81.25 25 81.25 Z M 25 81.25 "/>
<path style=" stroke:none;fill-rule:evenodd;fill:rgb(84, 91, 119);fill-opacity:1;" d="M 16.667969 54.167969 C 9.761719 54.167969 4.167969 59.761719 4.167969 66.667969 L 4.167969 83.332031 C 4.167969 90.238281 9.761719 95.832031 16.667969 95.832031 L 83.332031 95.832031 C 90.238281 95.832031 95.832031 90.238281 95.832031 83.332031 L 95.832031 66.667969 C 95.832031 59.761719 90.238281 54.167969 83.332031 54.167969 Z M 12.5 66.667969 C 12.5 64.367188 14.367188 62.5 16.667969 62.5 L 83.332031 62.5 C 85.632812 62.5 87.5 64.367188 87.5 66.667969 L 87.5 83.332031 C 87.5 85.632812 85.632812 87.5 83.332031 87.5 L 16.667969 87.5 C 14.367188 87.5 12.5 85.632812 12.5 83.332031 Z M 12.5 66.667969 "/>
</g>
</svg>
